<svg xmlns="http://www.w3.org/2000/svg" x="0px" y="0px" width="100" height="100" viewBox="0 0 100 100">
<path fill="#75849d" d="M83,20.65v59c0,7.17-5.83,13-13,13H31c-7.17,0-13-5.83-13-13v-59c0-7.16,5.83-13,13-13h39 C77.17,7.65,83,13.49,83,20.65z"></path><path fill="#a2b4cc" d="M83,21c0-7.16-5.83-13-13-13H31c-7.17,0-13,5.84-13,13v16.512c21.835,1.752,48.411,8.314,65,20.12 V21z"></path><polygon fill="#31c4f3" points="64.696,20.681 65.061,27.202 70.64,30.598 64.551,32.961 63.045,39.316 58.917,34.255 52.407,34.787 55.945,29.297 53.427,23.27 59.742,24.938"></polygon><path fill="#31c4f3" d="M46.478,48.288l5.461,8.369c0.156,0.239,0.419,0.386,0.705,0.393l9.99,0.245 c0.718,0.018,1.104,0.851,0.654,1.41l-6.271,7.78c-0.179,0.222-0.237,0.518-0.156,0.791l2.854,9.577 c0.205,0.688-0.468,1.313-1.139,1.057l-9.337-3.56c-0.267-0.102-0.566-0.066-0.801,0.096l-8.226,5.673 c-0.591,0.408-1.394-0.039-1.358-0.757l0.501-9.981c0.014-0.285-0.113-0.559-0.339-0.732l-7.938-6.071 c-0.571-0.436-0.393-1.338,0.3-1.525l9.647-2.608c0.275-0.074,0.497-0.28,0.591-0.549l3.32-9.425 C45.174,47.796,46.086,47.687,46.478,48.288z"></path><path fill="#1f212b" d="M77.5,56.654c-0.276,0-0.5,0.224-0.5,0.5v19.662c0,5.424-4.414,9.838-9.838,9.838H33.838 c-5.424,0-9.838-4.414-9.838-9.838V57.154V46.124v-5.969c0-0.277-0.224-0.5-0.5-0.5s-0.5,0.224-0.5,0.5v5.562v11.438v19.662 c0,5.976,4.862,10.836,10.838,10.836h33.324C73.138,87.653,78,82.792,78,76.816V57.154C78,56.877,77.776,56.654,77.5,56.654z"></path><path fill="#1f212b" d="M70,7.654H31c-7.168,0-13,5.832-13,13v59c0,7.168,5.832,13,13,13h39c7.168,0,13-5.832,13-13v-59 C83,13.485,77.168,7.654,70,7.654z M31,9.654h39c6.065,0,11,4.935,11,11v34.394C62.18,41.822,37.74,37.406,20,36.073V20.654 C20,14.589,24.935,9.654,31,9.654z M70,90.654H31c-6.065,0-11-4.935-11-11V38.083c17.841,1.355,42.458,5.861,61,19.439v22.133 C81,85.719,76.065,90.654,70,90.654z"></path><path fill="#1f212b" d="M77.5,50.654c0.276,0,0.5-0.224,0.5-0.5v-17c0-0.277-0.224-0.5-0.5-0.5s-0.5,0.224-0.5,0.5v17 C77,50.43,77.224,50.654,77.5,50.654z"></path><path fill="#1f212b" d="M23.5,34.654c0.276,0,0.5-0.224,0.5-0.5V30.08v-2.925V23.49c0-5.424,4.414-9.838,9.838-9.838H67.5 c0.276,0,0.5-0.224,0.5-0.5s-0.224-0.5-0.5-0.5H33.838C27.862,12.653,23,17.515,23,23.49v3.664v3.416v3.584 C23,34.43,23.224,34.654,23.5,34.654z"></path><path fill="#1f212b" d="M65.694,20.626c-0.021-0.38-0.256-0.715-0.607-0.864c-0.349-0.148-0.754-0.086-1.043,0.161 l-4.555,3.914l-5.807-1.533c-0.368-0.097-0.76,0.022-1.009,0.31c-0.25,0.287-0.315,0.691-0.169,1.043l2.315,5.541l-3.253,5.048 c-0.206,0.32-0.212,0.729-0.017,1.056c0.196,0.326,0.553,0.51,0.939,0.483l5.986-0.489l3.796,4.653 c0.192,0.236,0.479,0.368,0.775,0.368c0.074,0,0.149-0.008,0.224-0.025c0.371-0.085,0.661-0.374,0.749-0.744l1.385-5.844 l5.599-2.172c0.355-0.138,0.601-0.465,0.634-0.845c0.034-0.379-0.151-0.744-0.476-0.942l-5.13-3.123L65.694,20.626z M64.189,32.028c-0.307,0.119-0.535,0.382-0.611,0.702l-1.039,4.384l-2.848-3.49c-0.191-0.234-0.476-0.368-0.775-0.368 c-0.027,0-0.054,0.001-0.082,0.003l-4.49,0.367l2.44-3.787c0.178-0.277,0.209-0.624,0.082-0.928l-1.737-4.156l4.356,1.149 c0.318,0.086,0.658,0.007,0.907-0.208l3.417-2.936l0.252,4.497c0.019,0.329,0.197,0.627,0.479,0.799l3.849,2.343L64.189,32.028z"></path><path fill="#1f212b" d="M38.351,69.403l-0.497,9.911c-0.036,0.715,0.33,1.376,0.955,1.724 c0.286,0.159,0.599,0.238,0.91,0.238c0.371,0,0.739-0.111,1.059-0.332l8.168-5.634l9.273,3.535c0.67,0.254,1.411,0.11,1.935-0.376 s0.723-1.215,0.519-1.9l-2.834-9.511l6.227-7.726c0.45-0.557,0.542-1.306,0.242-1.956c-0.301-0.649-0.933-1.064-1.648-1.082 l-9.92-0.243l-5.423-8.311c-0.391-0.599-1.076-0.914-1.786-0.833c-0.71,0.086-1.3,0.558-1.538,1.233l-3.297,9.359l-9.579,2.589 c-0.691,0.188-1.207,0.739-1.345,1.441c-0.138,0.703,0.129,1.409,0.698,1.844L38.351,69.403z M41.286,59.413 c0.592-0.162,1.067-0.604,1.271-1.182l3.231-9.17l5.314,8.145c0.337,0.514,0.904,0.829,1.517,0.844l9.72,0.238l-6.103,7.571 c-0.385,0.479-0.51,1.116-0.334,1.703l2.777,9.318l-9.083-3.463c-0.574-0.22-1.221-0.144-1.728,0.206l-8.004,5.521l0.487-9.711 c0.031-0.613-0.242-1.203-0.73-1.576l-7.723-5.907L41.286,59.413z"></path>
</svg>